<mxfile host="Electron" modified="2024-07-08T02:12:47.101Z" agent="Mozilla/5.0 (Macintosh; Intel Mac OS X 10_15_7) AppleWebKit/537.36 (KHTML, like Gecko) draw.io/24.4.13 Chrome/124.0.6367.207 Electron/30.0.6 Safari/537.36" etag="4M-2ebxFLA3AejIcl-fS" version="24.4.13" type="device">
  <diagram name="第 1 页" id="osxDOasA6XPxjHvbJgYB">
    <mxGraphModel dx="1853" dy="-502" grid="1" gridSize="10" guides="1" tooltips="1" connect="1" arrows="1" fold="1" page="1" pageScale="1" pageWidth="827" pageHeight="1169" math="0" shadow="0">
      <root>
        <mxCell id="0" />
        <mxCell id="1" parent="0" />
        <mxCell id="ZytyP-FlqjMnojuuKs2a-1" value="&lt;font style=&quot;font-size: 24px;&quot;&gt;MOP首页场景&lt;/font&gt;" style="text;strokeColor=none;fillColor=none;align=left;verticalAlign=middle;spacingLeft=4;spacingRight=4;overflow=hidden;points=[[0,0.5],[1,0.5]];portConstraint=eastwest;rotatable=0;whiteSpace=wrap;html=1;fontSize=24;" parent="1" vertex="1">
          <mxGeometry x="-767.5" y="1310" width="327.5" height="63" as="geometry" />
        </mxCell>
        <mxCell id="ZytyP-FlqjMnojuuKs2a-2" value="&lt;font style=&quot;font-size: 23px;&quot;&gt;接口视角&lt;/font&gt;" style="text;html=1;align=center;verticalAlign=middle;resizable=0;points=[];autosize=1;strokeColor=none;fillColor=none;fontSize=23;" parent="1" vertex="1">
          <mxGeometry x="-767.5" y="1410" width="120" height="40" as="geometry" />
        </mxCell>
        <mxCell id="ZytyP-FlqjMnojuuKs2a-3" value="" style="edgeStyle=entityRelationEdgeStyle;rounded=0;orthogonalLoop=1;jettySize=auto;html=1;startArrow=none;endArrow=none;segment=10;curved=1;sourcePerimeterSpacing=0;targetPerimeterSpacing=0;strokeColor=none;" parent="1" source="ZytyP-FlqjMnojuuKs2a-5" target="ZytyP-FlqjMnojuuKs2a-7" edge="1">
          <mxGeometry relative="1" as="geometry" />
        </mxCell>
        <mxCell id="ZytyP-FlqjMnojuuKs2a-4" style="edgeStyle=entityRelationEdgeStyle;rounded=0;orthogonalLoop=1;jettySize=auto;html=1;startArrow=none;endArrow=none;segment=10;curved=1;sourcePerimeterSpacing=0;targetPerimeterSpacing=0;exitX=1;exitY=0.5;exitDx=0;exitDy=0;entryX=0;entryY=0.5;entryDx=0;entryDy=0;" parent="1" source="ZytyP-FlqjMnojuuKs2a-5" target="ZytyP-FlqjMnojuuKs2a-7" edge="1">
          <mxGeometry relative="1" as="geometry" />
        </mxCell>
        <mxCell id="ZytyP-FlqjMnojuuKs2a-5" value="门店数据&lt;div&gt;/mop/v2/store/list&lt;/div&gt;" style="whiteSpace=wrap;html=1;rounded=1;arcSize=50;align=center;verticalAlign=middle;strokeWidth=1;autosize=0;spacing=4;treeFolding=1;treeMoving=1;newEdgeStyle={&quot;edgeStyle&quot;:&quot;entityRelationEdgeStyle&quot;,&quot;startArrow&quot;:&quot;none&quot;,&quot;endArrow&quot;:&quot;none&quot;,&quot;segment&quot;:10,&quot;curved&quot;:1,&quot;sourcePerimeterSpacing&quot;:0,&quot;targetPerimeterSpacing&quot;:0};strokeColor=#2D7600;fontFamily=Helvetica;fontSize=12;fontColor=#ffffff;fillColor=#60a917;" parent="1" vertex="1">
          <mxGeometry x="-761" y="1510" width="120" height="60" as="geometry" />
        </mxCell>
        <mxCell id="ZytyP-FlqjMnojuuKs2a-6" value="" style="edgeStyle=entityRelationEdgeStyle;rounded=0;orthogonalLoop=1;jettySize=auto;html=1;startArrow=none;endArrow=none;segment=10;curved=1;sourcePerimeterSpacing=0;targetPerimeterSpacing=0;" parent="1" source="ZytyP-FlqjMnojuuKs2a-7" target="ZytyP-FlqjMnojuuKs2a-10" edge="1">
          <mxGeometry relative="1" as="geometry" />
        </mxCell>
        <mxCell id="ZytyP-FlqjMnojuuKs2a-7" value="Customer Center" style="whiteSpace=wrap;html=1;rounded=1;arcSize=50;align=center;verticalAlign=middle;strokeWidth=1;autosize=0;spacing=4;treeFolding=1;treeMoving=1;newEdgeStyle={&quot;edgeStyle&quot;:&quot;entityRelationEdgeStyle&quot;,&quot;startArrow&quot;:&quot;none&quot;,&quot;endArrow&quot;:&quot;none&quot;,&quot;segment&quot;:10,&quot;curved&quot;:1,&quot;sourcePerimeterSpacing&quot;:0,&quot;targetPerimeterSpacing&quot;:0};strokeColor=#3700CC;fontFamily=Helvetica;fontSize=12;fontColor=#ffffff;fillColor=#6a00ff;" parent="1" vertex="1">
          <mxGeometry x="-570" y="1510" width="120" height="60" as="geometry" />
        </mxCell>
        <mxCell id="ZytyP-FlqjMnojuuKs2a-8" value="" style="edgeStyle=orthogonalEdgeStyle;rounded=0;orthogonalLoop=1;jettySize=auto;html=1;" parent="1" source="ZytyP-FlqjMnojuuKs2a-10" target="ZytyP-FlqjMnojuuKs2a-11" edge="1">
          <mxGeometry relative="1" as="geometry" />
        </mxCell>
        <mxCell id="ZytyP-FlqjMnojuuKs2a-9" style="edgeStyle=orthogonalEdgeStyle;rounded=0;orthogonalLoop=1;jettySize=auto;html=1;exitX=1;exitY=0.5;exitDx=0;exitDy=0;entryX=0;entryY=0.5;entryDx=0;entryDy=0;" parent="1" source="ZytyP-FlqjMnojuuKs2a-10" target="ZytyP-FlqjMnojuuKs2a-12" edge="1">
          <mxGeometry relative="1" as="geometry" />
        </mxCell>
        <mxCell id="ZytyP-FlqjMnojuuKs2a-10" value="&lt;div&gt;/preference/stores/${customer_id}&lt;br&gt;获取MOP收藏⻔店ID列表&lt;br&gt;&lt;/div&gt;" style="text;html=1;align=center;verticalAlign=middle;whiteSpace=wrap;rounded=0;fontFamily=Helvetica;fontSize=12;fontColor=default;autosize=1;" parent="1" vertex="1">
          <mxGeometry x="-380" y="1520" width="200" height="40" as="geometry" />
        </mxCell>
        <mxCell id="ZytyP-FlqjMnojuuKs2a-11" value="redis" style="rounded=1;whiteSpace=wrap;html=1;fillColor=#f8cecc;strokeColor=#b85450;" parent="1" vertex="1">
          <mxGeometry x="-60" y="1510" width="100" height="20" as="geometry" />
        </mxCell>
        <mxCell id="ZytyP-FlqjMnojuuKs2a-12" value="mysql" style="rounded=1;whiteSpace=wrap;html=1;fillColor=#f8cecc;strokeColor=#b85450;" parent="1" vertex="1">
          <mxGeometry x="-60" y="1550" width="100" height="20" as="geometry" />
        </mxCell>
        <mxCell id="ZytyP-FlqjMnojuuKs2a-13" value="&lt;font color=&quot;#000000&quot; style=&quot;font-size: 13px;&quot;&gt;1:1&lt;/font&gt;" style="edgeLabel;html=1;align=center;verticalAlign=middle;resizable=0;points=[];rounded=1;strokeColor=#005700;fontFamily=Helvetica;fontSize=13;fontColor=#ffffff;fillColor=#008a00;labelBackgroundColor=none;" parent="1" vertex="1" connectable="0">
          <mxGeometry x="-690.003846153846" y="1559.9999999999995" as="geometry">
            <mxPoint x="91" y="-49" as="offset" />
          </mxGeometry>
        </mxCell>
        <mxCell id="ZytyP-FlqjMnojuuKs2a-14" value="&lt;font color=&quot;#000000&quot; style=&quot;font-size: 13px;&quot;&gt;1:1&lt;/font&gt;" style="edgeLabel;html=1;align=center;verticalAlign=middle;resizable=0;points=[];rounded=1;strokeColor=#005700;fontFamily=Helvetica;fontSize=13;fontColor=#ffffff;fillColor=#008a00;labelBackgroundColor=none;" parent="1" vertex="1" connectable="0">
          <mxGeometry x="-190.00384615384598" y="1559.9999999999995" as="geometry">
            <mxPoint x="91" y="-49" as="offset" />
          </mxGeometry>
        </mxCell>
        <mxCell id="ZytyP-FlqjMnojuuKs2a-15" value="&lt;font color=&quot;#000000&quot; style=&quot;font-size: 13px;&quot;&gt;1:1&lt;/font&gt;" style="edgeLabel;html=1;align=center;verticalAlign=middle;resizable=0;points=[];rounded=1;strokeColor=#005700;fontFamily=Helvetica;fontSize=13;fontColor=#ffffff;fillColor=#008a00;labelBackgroundColor=none;" parent="1" vertex="1" connectable="0">
          <mxGeometry x="-190.00384615384598" y="1599.9999999999995" as="geometry">
            <mxPoint x="91" y="-49" as="offset" />
          </mxGeometry>
        </mxCell>
        <mxCell id="3vlOogcMV9gF5qIw3cBP-3" value="" style="edgeStyle=entityRelationEdgeStyle;rounded=0;orthogonalLoop=1;jettySize=auto;html=1;startArrow=none;endArrow=none;segment=10;curved=1;sourcePerimeterSpacing=0;targetPerimeterSpacing=0;" edge="1" parent="1" source="3vlOogcMV9gF5qIw3cBP-1" target="3vlOogcMV9gF5qIw3cBP-2">
          <mxGeometry relative="1" as="geometry" />
        </mxCell>
        <mxCell id="3vlOogcMV9gF5qIw3cBP-1" value="&lt;div&gt;购物车数据&lt;/div&gt;&lt;div&gt;/mop/cart/detail/v4&lt;br&gt;&lt;/div&gt;" style="whiteSpace=wrap;html=1;rounded=1;arcSize=50;align=center;verticalAlign=middle;strokeWidth=1;autosize=0;spacing=4;treeFolding=1;treeMoving=1;newEdgeStyle={&quot;edgeStyle&quot;:&quot;entityRelationEdgeStyle&quot;,&quot;startArrow&quot;:&quot;none&quot;,&quot;endArrow&quot;:&quot;none&quot;,&quot;segment&quot;:10,&quot;curved&quot;:1,&quot;sourcePerimeterSpacing&quot;:0,&quot;targetPerimeterSpacing&quot;:0};strokeColor=#2D7600;fontFamily=Helvetica;fontSize=12;fontColor=#ffffff;fillColor=#60a917;" vertex="1" parent="1">
          <mxGeometry x="-761" y="1694" width="120" height="60" as="geometry" />
        </mxCell>
        <mxCell id="3vlOogcMV9gF5qIw3cBP-5" value="" style="edgeStyle=entityRelationEdgeStyle;rounded=0;orthogonalLoop=1;jettySize=auto;html=1;startArrow=none;endArrow=none;segment=10;curved=1;sourcePerimeterSpacing=0;targetPerimeterSpacing=0;" edge="1" parent="1" source="3vlOogcMV9gF5qIw3cBP-2" target="3vlOogcMV9gF5qIw3cBP-4">
          <mxGeometry relative="1" as="geometry" />
        </mxCell>
        <mxCell id="3vlOogcMV9gF5qIw3cBP-2" value="Star Engline" style="whiteSpace=wrap;html=1;rounded=1;arcSize=50;align=center;verticalAlign=middle;strokeWidth=1;autosize=0;spacing=4;treeFolding=1;treeMoving=1;newEdgeStyle={&quot;edgeStyle&quot;:&quot;entityRelationEdgeStyle&quot;,&quot;startArrow&quot;:&quot;none&quot;,&quot;endArrow&quot;:&quot;none&quot;,&quot;segment&quot;:10,&quot;curved&quot;:1,&quot;sourcePerimeterSpacing&quot;:0,&quot;targetPerimeterSpacing&quot;:0};strokeColor=#6D1F00;fontFamily=Helvetica;fontSize=12;fontColor=#ffffff;fillColor=#a0522d;" vertex="1" parent="1">
          <mxGeometry x="-570" y="1694" width="120" height="60" as="geometry" />
        </mxCell>
        <mxCell id="3vlOogcMV9gF5qIw3cBP-10" style="edgeStyle=orthogonalEdgeStyle;rounded=0;orthogonalLoop=1;jettySize=auto;html=1;exitX=1;exitY=0.5;exitDx=0;exitDy=0;entryX=0;entryY=0.5;entryDx=0;entryDy=0;" edge="1" parent="1" source="3vlOogcMV9gF5qIw3cBP-4" target="3vlOogcMV9gF5qIw3cBP-7">
          <mxGeometry relative="1" as="geometry" />
        </mxCell>
        <mxCell id="3vlOogcMV9gF5qIw3cBP-11" style="edgeStyle=orthogonalEdgeStyle;rounded=0;orthogonalLoop=1;jettySize=auto;html=1;exitX=1;exitY=0.5;exitDx=0;exitDy=0;entryX=0;entryY=0.5;entryDx=0;entryDy=0;" edge="1" parent="1" source="3vlOogcMV9gF5qIw3cBP-4" target="3vlOogcMV9gF5qIw3cBP-8">
          <mxGeometry relative="1" as="geometry" />
        </mxCell>
        <mxCell id="3vlOogcMV9gF5qIw3cBP-14" value="从redis中获取，&lt;br&gt;没有才会查询ob" style="edgeLabel;html=1;align=center;verticalAlign=middle;resizable=0;points=[];" vertex="1" connectable="0" parent="3vlOogcMV9gF5qIw3cBP-11">
          <mxGeometry x="-0.44" y="-3" relative="1" as="geometry">
            <mxPoint x="22" y="-3" as="offset" />
          </mxGeometry>
        </mxCell>
        <mxCell id="3vlOogcMV9gF5qIw3cBP-4" value="&lt;div&gt;/star/calculateStar&lt;br&gt;&lt;/div&gt;" style="text;html=1;align=center;verticalAlign=middle;whiteSpace=wrap;rounded=0;fontFamily=Helvetica;fontSize=12;fontColor=default;autosize=1;" vertex="1" parent="1">
          <mxGeometry x="-340" y="1709" width="120" height="30" as="geometry" />
        </mxCell>
        <mxCell id="3vlOogcMV9gF5qIw3cBP-6" value="&lt;span style=&quot;color: rgb(0, 0, 0); font-family: Helvetica; font-size: 13px; font-style: normal; font-variant-ligatures: normal; font-variant-caps: normal; font-weight: 400; letter-spacing: normal; orphans: 2; text-align: center; text-indent: 0px; text-transform: none; widows: 2; word-spacing: 0px; -webkit-text-stroke-width: 0px; white-space: nowrap; background-color: rgb(251, 251, 251); text-decoration-thickness: initial; text-decoration-style: initial; text-decoration-color: initial; display: inline !important; float: none;&quot;&gt;1:1&lt;/span&gt;" style="text;whiteSpace=wrap;html=1;" vertex="1" parent="1">
          <mxGeometry x="-620" y="1680" width="50" height="40" as="geometry" />
        </mxCell>
        <mxCell id="3vlOogcMV9gF5qIw3cBP-7" value="redis" style="rounded=1;whiteSpace=wrap;html=1;fillColor=#f8cecc;strokeColor=#b85450;" vertex="1" parent="1">
          <mxGeometry x="-150" y="1674" width="100" height="20" as="geometry" />
        </mxCell>
        <mxCell id="3vlOogcMV9gF5qIw3cBP-8" value="ob" style="rounded=1;whiteSpace=wrap;html=1;fillColor=#f8cecc;strokeColor=#b85450;" vertex="1" parent="1">
          <mxGeometry x="-150" y="1744" width="100" height="20" as="geometry" />
        </mxCell>
        <mxCell id="3vlOogcMV9gF5qIw3cBP-12" value="&lt;font color=&quot;#000000&quot; style=&quot;font-size: 13px;&quot;&gt;1:8&lt;/font&gt;" style="edgeLabel;html=1;align=center;verticalAlign=middle;resizable=0;points=[];rounded=1;strokeColor=#005700;fontFamily=Helvetica;fontSize=13;fontColor=#ffffff;fillColor=#008a00;labelBackgroundColor=none;" vertex="1" connectable="0" parent="1">
          <mxGeometry x="-260.003846153846" y="1723.9999999999995" as="geometry">
            <mxPoint x="91" y="-49" as="offset" />
          </mxGeometry>
        </mxCell>
        <mxCell id="3vlOogcMV9gF5qIw3cBP-13" value="&lt;font color=&quot;#000000&quot; style=&quot;font-size: 13px;&quot;&gt;1:8&lt;/font&gt;" style="edgeLabel;html=1;align=center;verticalAlign=middle;resizable=0;points=[];rounded=1;strokeColor=#005700;fontFamily=Helvetica;fontSize=13;fontColor=#ffffff;fillColor=#008a00;labelBackgroundColor=none;" vertex="1" connectable="0" parent="1">
          <mxGeometry x="-260.003846153846" y="1789.9999999999995" as="geometry">
            <mxPoint x="91" y="-49" as="offset" />
          </mxGeometry>
        </mxCell>
      </root>
    </mxGraphModel>
  </diagram>
</mxfile>
